<svg width="512" height="512" viewBox="0 0 512 512" xmlns="http://www.w3.org/2000/svg">
  <defs>
    <linearGradient id="grad512" x1="0%" y1="0%" x2="100%" y2="100%">
      <stop offset="0%" style="stop-color:#00f3ff;stop-opacity:1" />
      <stop offset="100%" style="stop-color:#0a0a0f;stop-opacity:1" />
    </linearGradient>
    <radialGradient id="radial512" cx="50%" cy="50%" r="50%">
      <stop offset="0%" style="stop-color:#00f3ff;stop-opacity:0.8" />
      <stop offset="100%" style="stop-color:#00f3ff;stop-opacity:0" />
    </radialGradient>
  </defs>

  <!-- Background -->
  <rect width="512" height="512" rx="112" fill="#0a0a0f"/>

  <!-- Glow effect -->
  <circle cx="256" cy="256" r="200" fill="url(#radial512)"/>

  <!-- Camera lens outer circle -->
  <circle cx="256" cy="256" r="180" fill="none" stroke="#00f3ff" stroke-width="8"/>

  <!-- Camera lens middle circle -->
  <circle cx="256" cy="256" r="140" fill="none" stroke="#00f3ff" stroke-width="4" opacity="0.5"/>

  <!-- Camera lens inner circle -->
  <circle cx="256" cy="256" r="120" fill="#00f3ff" opacity="0.2"/>
  <circle cx="256" cy="256" r="80" fill="#00f3ff"/>

  <!-- Lens highlights -->
  <circle cx="256" cy="256" r="40" fill="url(#grad512)"/>
  <circle cx="276" cy="236" r="20" fill="#ffffff" opacity="0.3"/>

  <!-- Corner markers (camera focus style) -->
  <path d="M 256 56 L 256 100 M 256 412 L 256 456 M 56 256 L 100 256 M 412 256 L 456 256"
        stroke="#00f3ff" stroke-width="6" stroke-linecap="round"/>

  <!-- Brand accent -->
  <rect x="192" y="40" width="128" height="16" rx="8" fill="#00f3ff"/>

  <!-- Additional detail - shutter blades suggestion -->
  <g opacity="0.3">
    <path d="M 256 176 L 276 196 L 256 216 Z" fill="#00f3ff"/>
    <path d="M 256 176 L 236 196 L 256 216 Z" fill="#00f3ff" transform="rotate(60 256 256)"/>
    <path d="M 256 176 L 276 196 L 256 216 Z" fill="#00f3ff" transform="rotate(120 256 256)"/>
    <path d="M 256 176 L 236 196 L 256 216 Z" fill="#00f3ff" transform="rotate(180 256 256)"/>
    <path d="M 256 176 L 276 196 L 256 216 Z" fill="#00f3ff" transform="rotate(240 256 256)"/>
    <path d="M 256 176 L 236 196 L 256 216 Z" fill="#00f3ff" transform="rotate(300 256 256)"/>
  </g>
</svg>
